<?xml version="1.0" encoding="iso-8859-1"?>
<!-- Generator: Adobe Illustrator 19.0.0, SVG Export Plug-In . SVG Version: 6.00 Build 0)  -->
<svg xmlns="http://www.w3.org/2000/svg" xmlns:xlink="http://www.w3.org/1999/xlink" version="1.1" id="Layer_1" x="0px" y="0px" viewBox="0 0 512 512" style="enable-background:new 0 0 512 512;" xml:space="preserve">
<path style="fill:#EF5552;" d="M507.013,59.757L452.242,4.986c-6.366-6.368-16.382-6.678-22.369-0.691l-41.053,41.05l77.833,77.833  l41.051-41.053C513.69,76.139,513.381,66.125,507.013,59.757z"/>
<path style="fill:#CE2C28;" d="M444.483,19.166c4.533-4.533,12.38-6.073,19.364-2.575L452.242,4.986  c-6.366-6.368-16.382-6.678-22.369-0.691l-41.053,41.05l14.74,14.74L444.483,19.166z"/>
<path style="fill:#EFB160;" d="M56.01,387.014c-2.446-2.444-6.41-2.445-8.856,0.001c-3.042,3.042-3.705,3.513-4.301,5.076  L0.423,503.496c-1.919,5.036,3.037,10.003,8.08,8.08c118.965-45.308,112.212-42.458,113.606-43.854  c2.838-2.838,4.712-4.164,4.712-7.305C126.821,456.735,130.786,461.79,56.01,387.014z"/>
<path style="fill:#D38E3C;" d="M65.239,396.244l-9.229-9.23c-2.446-2.444-6.41-2.445-8.856,0.001  c-3.042,3.042-3.705,3.513-4.301,5.076L0.423,503.496c-1.919,5.036,3.037,10.003,8.08,8.08l12.344-4.701  C65.662,389.205,59.846,401.637,65.239,396.244z"/>
<path style="fill:#F2D422;" d="M341.799,92.369L43.329,390.84l77.833,77.831c13.876-13.876,284.652-284.653,298.467-298.468  L341.799,92.369z"/>
<polygon style="fill:#F7AC16;" points="341.799,92.369 43.329,390.84 82.245,429.755 380.713,131.286 380.713,131.286 "/>
<polygon style="fill:#ED830F;" points="57.841,405.352 356.305,106.876 341.799,92.369 43.329,390.84 "/>
<path style="fill:#989898;" d="M0.423,503.501c-0.877,2.304-0.319,4.909,1.425,6.652c3.261,3.264,6.865,1.345,9.897,0.191  l46.561-17.734l-38.912-38.916L0.423,503.501z"/>
<path style="fill:#635F5A;" d="M20.846,506.876l14.267-37.46l-15.722-15.723L0.423,503.501c-1.561,4.1,1.483,8.486,5.853,8.486  C7.811,511.987,7.349,512.017,20.846,506.876z"/>
<path style="fill:#989DA0;" d="M444.548,169.778c5.986-5.986,5.677-16.001-0.689-22.37l-79.268-79.265  c-6.366-6.368-16.383-6.678-22.369-0.691l-2.876,2.875c-5.986,5.987-5.678,16.002,0.69,22.371l79.267,79.264  c6.367,6.369,16.383,6.678,22.369,0.692L444.548,169.778z"/>
<path style="fill:#74787A;" d="M432.086,161.004L352.82,81.74c-5.039-5.039-6.268-12.355-3.602-18.158  c-4.74,1.118-6.755,3.628-9.872,6.744c-5.986,5.987-5.678,16.002,0.69,22.371l79.267,79.264c6.367,6.369,16.383,6.678,22.369,0.692  c3.006-3.006,4.452-4.181,5.788-7.088C442.234,166.799,436.345,165.265,432.086,161.004z"/>
<path style="fill:#D3D3D3;" d="M469.103,145.221c5.987-5.986,5.678-16.001-0.691-22.37l-79.264-79.264  c-6.369-6.369-16.385-6.678-22.372-0.692l-2.875,2.876c-5.987,5.987-5.676,16.003,0.69,22.371l79.268,79.265  c6.366,6.369,16.382,6.677,22.369,0.69L469.103,145.221z"/>
<path style="fill:#BABABA;" d="M456.121,135.928l-79.268-79.265c-4.821-4.823-6.162-11.737-3.931-17.41  c-4.192,1.253-5.94,3.436-9.021,6.518c-5.987,5.987-5.676,16.003,0.69,22.371l79.268,79.265c6.366,6.369,16.382,6.677,22.369,0.69  c2.988-2.989,4.78-4.441,6.116-7.837C466.916,141.884,460.612,140.422,456.121,135.928z"/>
<g>
</g>
<g>
</g>
<g>
</g>
<g>
</g>
<g>
</g>
<g>
</g>
<g>
</g>
<g>
</g>
<g>
</g>
<g>
</g>
<g>
</g>
<g>
</g>
<g>
</g>
<g>
</g>
<g>
</g>
</svg>
