<?xml version="1.0" encoding="iso-8859-1"?>
<!-- Generator: Adobe Illustrator 19.0.0, SVG Export Plug-In . SVG Version: 6.00 Build 0)  -->
<svg xmlns="http://www.w3.org/2000/svg" xmlns:xlink="http://www.w3.org/1999/xlink" version="1.1" id="Layer_1" x="0px" y="0px" viewBox="0 0 512 512" style="enable-background:new 0 0 512 512;" xml:space="preserve">
<path style="fill:#6EDCF9;" d="M507.879,201.813L340.511,34.444c-5.49-5.491-14.393-5.491-19.885,0L4.119,350.953  c-5.492,5.49-5.492,14.393,0,19.884l104.139,104.14h146.341l253.28-253.281C513.373,216.206,513.373,207.303,507.879,201.813z"/>
<path style="fill:#48C3E0;" d="M18.148,367.112c2.682-2.682,326.693-326.727,327.542-327.49l-5.178-5.178  c-5.49-5.491-14.393-5.491-19.885,0L4.119,350.953c-5.492,5.49-5.492,14.393,0,19.884l10.272,10.273  C13.111,376.272,14.353,370.905,18.148,367.112z"/>
<path style="fill:#4A94CC;" d="M507.879,201.813L340.511,34.444c-5.49-5.491-14.393-5.491-19.885,0L171.485,183.585L358.74,370.838  l149.14-149.141C513.373,216.206,513.373,207.303,507.879,201.813z"/>
<path style="fill:#2A80B5;" d="M186.579,198.679c1.352-1.352,158.255-158.288,159.111-159.057l-5.178-5.178  c-5.49-5.491-14.393-5.491-19.885,0l-149.14,149.143L186.579,198.679z"/>
<polygon style="fill:#3075A0;" points="173.545,181.523 140.001,215.068 327.256,402.323 327.256,402.323 327.256,402.323   360.8,368.777 "/>
<rect x="140.608" y="195.177" transform="matrix(0.7071 -0.7071 0.7071 0.7071 -97.4274 176.4891)" style="fill:#1D6082;" width="47.439" height="21.346"/>
<g>
	<path style="fill:#6DBAE8;" d="M349.571,295.904l-103.15-103.15c-3.017-3.018-3.017-7.911,0-10.929   c3.018-3.016,7.911-3.016,10.929,0l103.15,103.15c3.017,3.018,3.017,7.911,0,10.929   C357.481,298.921,352.589,298.921,349.571,295.904z"/>
	<path style="fill:#6DBAE8;" d="M382.175,263.302L279.025,160.15c-3.018-3.018-3.018-7.911,0-10.929   c3.017-3.017,7.911-3.015,10.927,0l103.152,103.152c3.017,3.018,3.017,7.911,0,10.929   C390.085,266.319,385.193,266.319,382.175,263.302z"/>
</g>
<g>
	<path style="fill:#4ECDEA;" d="M393.03,481.675H115.47c-4.268,0-7.727-3.459-7.727-7.727c0-4.268,3.459-7.727,7.727-7.727h277.56   c4.267,0,7.727,3.459,7.727,7.727C400.757,478.216,397.297,481.675,393.03,481.675z"/>
	<path style="fill:#4ECDEA;" d="M446.3,481.675h-15.731c-4.268,0-7.727-3.459-7.727-7.727c0-4.268,3.459-7.727,7.727-7.727H446.3   c4.268,0,7.727,3.459,7.727,7.727C454.027,478.216,450.568,481.675,446.3,481.675z"/>
</g>
<g>
</g>
<g>
</g>
<g>
</g>
<g>
</g>
<g>
</g>
<g>
</g>
<g>
</g>
<g>
</g>
<g>
</g>
<g>
</g>
<g>
</g>
<g>
</g>
<g>
</g>
<g>
</g>
<g>
</g>
</svg>
