<?xml version="1.0" encoding="iso-8859-1"?>
<!-- Generator: Adobe Illustrator 19.0.0, SVG Export Plug-In . SVG Version: 6.00 Build 0)  -->
<svg xmlns="http://www.w3.org/2000/svg" xmlns:xlink="http://www.w3.org/1999/xlink" version="1.1" id="Layer_1" x="0px" y="0px" viewBox="0 0 512 512" style="enable-background:new 0 0 512 512;" xml:space="preserve">
<g>
	<path style="fill:#989898;" d="M46.178,94.438H23.314c-11.286,0-23.127,8.237-23.127,25.054c0,12.773,10.354,23.126,23.127,23.126   h22.863L46.178,94.438L46.178,94.438z"/>
	<path style="fill:#989898;" d="M465.819,94.438h22.865c11.247,0,23.125,8.201,23.125,25.054c0,12.773-10.354,23.126-23.125,23.126   h-22.865V94.438z"/>
</g>
<g>
	<path style="fill:#5B5B5B;" d="M2.272,107.975c-7.051,15.446,2.961,34.644,21.042,34.644h22.863v-21.11H23.314   C13.965,121.508,5.917,115.957,2.272,107.975z"/>
	<path style="fill:#5B5B5B;" d="M488.684,121.508h-22.865v21.11h22.865c17.953,0,28.136-19.101,21.04-34.644   C506.079,115.957,498.032,121.508,488.684,121.508z"/>
</g>
<path style="fill:#4A94CC;" d="M45.144,37.541v436.918c20.691,0,408.27,0,421.708,0V37.541H45.144z"/>
<path style="fill:#3078A5;" d="M45.144,106.753v299.652h421.708V106.753C435.261,106.753,58.779,106.753,45.144,106.753z"/>
<path style="fill:#2780B7;" d="M45.144,37.541v436.918c3.4,0,9.453,0,47.685,0V37.541H45.144z"/>
<polygon style="fill:#1D6589;" points="88.545,106.753 85.273,106.753 45.144,106.753 45.144,406.405 92.829,406.405   92.829,106.753 "/>
<circle style="fill:#60B0E2;" cx="256.58" cy="257.61" r="88.51"/>
<path style="fill:#4A94CC;" d="M188.821,257.607c0-45.369,34.146-82.743,78.135-87.882c-52.999-6.188-98.882,35.18-98.882,87.882  c0,52.628,45.816,94.08,98.882,87.882C222.967,340.349,188.821,302.976,188.821,257.607z"/>
<path style="fill:#F5F5F5;" d="M238.144,297.225l-2.216-1.585c-14.675-10.488-18.069-30.89-7.581-45.567l28.235-39.505  l28.235,39.505C306.262,280.08,267.604,318.277,238.144,297.225z"/>
<path style="fill:#E1E1E1;" d="M252.806,249.136l15.67-21.924l-11.894-16.643l-28.235,39.505  c-10.488,14.677-7.094,35.079,7.581,45.567l2.216,1.585c9.12,6.517,20.811,8.127,31.764,2.973  C247.238,291.503,240.451,266.424,252.806,249.136z"/>
<path style="fill:#E8E8E8;" d="M483.89,36.578c0-12.774-10.352-23.127-23.124-23.127H52.652c-11.286,0-23.129,8.235-23.129,25.053  c0,12.772,10.355,23.127,23.129,23.127h408.114C472.013,61.632,483.89,53.434,483.89,36.578z"/>
<path style="fill:#CCC8C8;" d="M460.766,37.542H52.652c-8.757,0-16.378-4.868-20.304-12.046  c-7.795,14.25,0.533,36.135,20.304,36.135h408.114c11.247,0,23.124-8.198,23.124-25.053c0-4.015-1.024-7.791-2.824-11.082  C477.141,32.674,469.523,37.542,460.766,37.542z"/>
<path style="fill:#E8E8E8;" d="M52.652,450.368c-12.773,0-23.129,10.354-23.129,23.127v1.927c0,12.773,10.355,23.127,23.129,23.127  h408.114c11.248,0,23.124-8.198,23.124-25.053c0-12.773-10.352-23.127-23.124-23.127"/>
<path style="fill:#CCC8C8;" d="M460.766,476.987H52.652c-9.262,0-17.25-5.446-20.943-13.309  c-7.257,15.45,2.752,34.871,20.943,34.871h408.114c18.703,0,27.785-20.284,20.939-34.871  C478.013,471.541,470.028,476.987,460.766,476.987z"/>
<path style="fill:#A8A8A8;" d="M85.16,313.456c-45.633-45.633-70.764-106.305-70.764-170.838c0-4.281,3.471-7.751,7.751-7.751  s7.751,3.47,7.751,7.751c0,124.671,101.428,226.099,226.099,226.099S482.098,267.29,482.098,142.618  c0-4.281,3.471-7.751,7.751-7.751s7.751,3.47,7.751,7.751c0,64.535-25.131,125.205-70.764,170.838  C332.415,407.879,179.593,407.887,85.16,313.456z"/>
<g>
</g>
<g>
</g>
<g>
</g>
<g>
</g>
<g>
</g>
<g>
</g>
<g>
</g>
<g>
</g>
<g>
</g>
<g>
</g>
<g>
</g>
<g>
</g>
<g>
</g>
<g>
</g>
<g>
</g>
</svg>
