<?xml version="1.0" encoding="iso-8859-1"?>
<!-- Generator: Adobe Illustrator 19.0.0, SVG Export Plug-In . SVG Version: 6.00 Build 0)  -->
<svg xmlns="http://www.w3.org/2000/svg" xmlns:xlink="http://www.w3.org/1999/xlink" version="1.1" id="Layer_1" x="0px" y="0px" viewBox="0 0 512 512" style="enable-background:new 0 0 512 512;" xml:space="preserve">
<path style="fill:#EFB160;" d="M107.226,351.566l-57.444-57.444c-2.436-2.437-6.386-2.437-8.822,0  c-4.056,4.057-4.608,4.407-5.205,5.977L0.42,392.877c-1.555,4.083,1.47,8.458,5.83,8.458c0.745,0,1.497-0.134,2.219-0.408  c106.233-40.458,92.24-34.025,98.756-40.541C109.662,357.951,109.662,354.002,107.226,351.566z"/>
<path style="fill:#D38E3C;" d="M57.503,301.843l-7.721-7.721c-2.436-2.437-6.386-2.437-8.822,0  c-4.056,4.057-4.608,4.407-5.205,5.977L0.42,392.877c-1.555,4.083,1.47,8.458,5.83,8.458c0.745,0,1.497-0.134,2.219-0.408  L19.83,396.6C57.784,296.943,53.853,305.494,57.503,301.843z"/>
<path style="fill:#CC7954;" d="M503.126,71.182L77.657,496.651c-3.26,3.259-0.953,8.874,3.676,8.874h425.469  c2.871,0,5.198-2.327,5.198-5.198V74.857C512,70.247,506.398,67.908,503.126,71.182z M281.707,419.136l142.638-142.637v142.637  H281.707z"/>
<path style="fill:#A5624A;" d="M503.126,71.182L77.657,496.651c-3.26,3.259-0.953,8.874,3.676,8.874h35.258L512,110.117v-35.26  C512,70.247,506.398,67.908,503.126,71.182z"/>
<path style="fill:#EF5552;" d="M356.264,111.35l34.953-34.952c5.097-5.097,4.833-13.623-0.587-19.045L343.998,10.72  c-5.422-5.422-13.95-5.686-19.047-0.589L290,45.084L356.264,111.35z"/>
<path style="fill:#CE2C28;" d="M340.972,23.742c3.344-3.344,8.102-4.48,12.583-3.464l-9.558-9.558  c-5.422-5.422-13.95-5.686-19.047-0.589L290,45.084l14.816,14.817L340.972,23.742z"/>
<path style="fill:#F2D422;" d="M290.348,44.733L36.229,298.852l66.266,66.266c4.312-4.312,246.822-246.821,254.12-254.12  L290.348,44.733z"/>
<rect x="156.421" y="8.668" transform="matrix(-0.7071 -0.7071 0.7071 -0.7071 173.8333 448.7173)" style="fill:#F7AC16;" width="46.856" height="359.377"/>
<rect x="160.211" y="-0.442" transform="matrix(-0.7072 -0.707 0.707 -0.7072 164.778 426.7323)" style="fill:#ED830F;" width="21.08" height="359.377"/>
<path style="fill:#989898;" d="M48.982,385.499l-33.133-33.133L0.42,392.877c-1.905,5.003,3,9.963,8.046,8.051  C27.292,393.758,18.341,397.167,48.982,385.499z"/>
<path style="fill:#635F5A;" d="M19.83,396.6l11.102-29.151l-15.084-15.083L0.42,392.877c-1.881,4.94,2.904,9.926,7.977,8.071  C8.724,400.834,19.502,396.725,19.83,396.6z"/>
<g>
</g>
<g>
</g>
<g>
</g>
<g>
</g>
<g>
</g>
<g>
</g>
<g>
</g>
<g>
</g>
<g>
</g>
<g>
</g>
<g>
</g>
<g>
</g>
<g>
</g>
<g>
</g>
<g>
</g>
</svg>
