<svg height="512pt" viewBox="0 -24 512 512" width="512pt" xmlns="http://www.w3.org/2000/svg"><path d="m271 239.03125h-30v-70.132812c0-43.445313 35.34375-78.789063 78.785156-78.789063 26.898438 0 48.785156-21.882813 48.785156-48.785156v-41.324219h30v41.324219c0 43.445312-35.34375 78.785156-78.785156 78.785156-26.898437 0-48.785156 21.886719-48.785156 48.789063zm0 0" fill="#07485e"/><path d="m512 209.007812h-256l-20.015625 126.246094 20.015625 128.894532h256zm0 0" fill="#b4d2d7"/><path d="m0 209.007812h256v255.140626h-256zm0 0" fill="#e1ebf0"/><g fill="#87a0af"><path d="m48.695312 257.792969h31.894532v30h-31.894532zm0 0"/><path d="m112.484375 257.792969h31.890625v30h-31.890625zm0 0"/><path d="m176.269531 257.792969h31.890625v30h-31.890625zm0 0"/><path d="m240.054688 257.792969h31.890624v30h-31.890624zm0 0"/></g><path d="m303.839844 257.792969h31.890625v30h-31.890625zm0 0" fill="#607882"/><path d="m367.625 257.792969h31.894531v30h-31.894531zm0 0" fill="#607882"/><path d="m431.410156 257.792969h31.894532v30h-31.894532zm0 0" fill="#607882"/><path d="m48.695312 321.578125h31.894532v30h-31.894532zm0 0" fill="#87a0af"/><path d="m112.484375 321.578125h31.890625v30h-31.890625zm0 0" fill="#87a0af"/><path d="m176.269531 321.578125h31.890625v30h-31.890625zm0 0" fill="#87a0af"/><path d="m240.054688 321.578125h31.890624v30h-31.890624zm0 0" fill="#87a0af"/><path d="m303.839844 321.578125h31.890625v30h-31.890625zm0 0" fill="#607882"/><path d="m367.625 321.578125h31.894531v30h-31.894531zm0 0" fill="#607882"/><path d="m431.410156 321.578125h31.894532v30h-31.894532zm0 0" fill="#607882"/><path d="m48.695312 385.363281h31.894532v30h-31.894532zm0 0" fill="#87a0af"/><path d="m112.484375 385.363281h31.890625v30h-31.890625zm0 0" fill="#87a0af"/><path d="m367.625 385.363281h95.679688v30h-95.679688zm0 0" fill="#607882"/><path d="m335.730469 385.363281h-79.730469l-10.007812 15 10.007812 15h79.730469zm0 0" fill="#607882"/><path d="m176.269531 385.363281h79.730469v30h-79.730469zm0 0" fill="#87a0af"/></svg>