<?xml version="1.0" encoding="iso-8859-1"?>
<!-- Generator: Adobe Illustrator 19.0.0, SVG Export Plug-In . SVG Version: 6.00 Build 0)  -->
<svg xmlns="http://www.w3.org/2000/svg" xmlns:xlink="http://www.w3.org/1999/xlink" version="1.1" id="Layer_1" x="0px" y="0px" viewBox="0 0 512 512" style="enable-background:new 0 0 512 512;" xml:space="preserve">
<path style="fill:#4A94CC;" d="M163.493,406.609c0,0-0.001-0.002-0.002-0.003c-0.08-0.278-0.651-2.225-0.751-2.485h-0.001  c-10.982-33.954-42.717-57.087-78.483-57.087l0,0c-0.001,0-0.001,0-0.001,0c-0.001,0-0.001,0-0.001,0  c-36.54,0-67.749,23.903-78.482,57.087H5.771c-0.317,1.033-0.266,0.803-0.752,2.485v0.003c-4.4,14.553-4.163,32.055,0,45.822v0.003  c0.486,1.682,0.435,1.452,0.752,2.485h0.001c24.228,74.907,132.112,76.844,156.966,0h0.001c0.1-0.26,0.671-2.208,0.751-2.485  c0.001-0.001,0.001-0.002,0.001-0.002C167.594,438.543,167.982,422.724,163.493,406.609z M83.37,429.52  c0.286-0.245,0.59-0.46,0.885-0.689c0.294,0.229,0.597,0.444,0.884,0.689c-0.287,0.245-0.59,0.46-0.884,0.689  C83.96,429.98,83.656,429.765,83.37,429.52z"/>
<g>
	<path style="fill:#2A80B5;" d="M105.787,429.52c-0.287-0.245-0.59-0.46-0.884-0.689c-0.295,0.229-0.599,0.444-0.885,0.689   c0.286,0.245,0.59,0.46,0.885,0.689C105.197,429.98,105.5,429.765,105.787,429.52z"/>
	<path style="fill:#2A80B5;" d="M26.42,454.919L26.42,454.919c-0.318-1.033-0.267-0.802-0.753-2.485v-0.003   c-4.109-13.591-4.504-30.926,0-45.822v-0.003c0.486-1.682,0.435-1.452,0.752-2.485h0.001c9.687-29.951,36.051-52.407,68.16-56.424   c-3.566-0.447-7.16-0.662-10.324-0.662l0,0c-0.001,0-0.001,0-0.001,0c-0.001,0-0.001,0-0.001,0   c-36.54,0-67.749,23.903-78.482,57.087H5.771c-0.317,1.033-0.266,0.803-0.752,2.485v0.003c-4.4,14.553-4.163,32.055,0,45.822v0.003   c0.486,1.682,0.435,1.452,0.752,2.485h0.001c11.845,36.623,48.395,61.495,88.808,56.424   C62.335,507.309,36.063,484.735,26.42,454.919z"/>
</g>
<path style="fill:#6EDCF9;" d="M388.078,198.563c-81.973-82.1-77.031-78.25-80.698-78.252  c-3.792-0.002,9.096-11.661-201.769,199.163c-2.763,2.763-2.157,1.191,2.471,48.549l-26.128,26.129  c-4.552,4.552-7.059,10.604-7.059,17.042c0,21.474,26.051,32.139,41.147,17.043l26.126-26.127  c47.168,4.609,45.786,5.238,48.554,2.473l197.352-197.265C390.492,204.902,390.495,200.983,388.078,198.563z"/>
<path style="fill:#48C3E0;" d="M104.666,400.864l26.128-26.129l-4.257-43.567c-0.418-4.293-11.05,7.852,195.544-198.704  c-11.135-11.153-11.45-12.151-14.7-12.153c-3.792-0.002,9.096-11.661-201.769,199.163c-2.763,2.763-2.157,1.191,2.471,48.549  l-26.129,26.13c-16.933,16.934-1.237,45.958,22.459,40.53C95.232,425.224,95.346,410.183,104.666,400.864z"/>
<path style="fill:#EF5552;" d="M422.444,175.011l69.678-69.679c24.096-24.095,24.096-63.163,0-87.26  c-24.098-24.097-63.164-24.097-87.264-0.001L335.182,87.75L422.444,175.011z"/>
<path style="fill:#D84439;" d="M420.862,31.283c19.206-19.203,47.545-23.67,71.022-13.438  c-24.117-23.862-63.004-23.791-87.025,0.227L335.183,87.75l14.608,14.607L420.862,31.283z"/>
<path style="fill:#FC8181;" d="M362.459,60.473l-27.276,27.278l87.261,87.26l27.275-27.275  C403.646,101.661,408.445,106.461,362.459,60.473z"/>
<rect x="345.814" y="62.123" transform="matrix(0.7071 0.7071 -0.7071 0.7071 161.8769 -227.9864)" style="fill:#F9615D;" width="20.656" height="38.574"/>
<path style="fill:#E1E1E1;" d="M298.247,126.837L163.004,262.08c14.664,0,152.771,0,170.221,0l50.132-50.133L298.247,126.837z"/>
<polygon style="fill:#BABABA;" points="298.266,126.856 163.017,262.08 192.439,262.08 312.976,141.566 "/>
<path style="fill:#EF5552;" d="M440.69,230.236c10.781-10.782,10.779-28.262,0-39.044L319.001,69.505  c-10.78-10.781-28.259-10.781-39.044,0c-10.779,10.78-10.78,28.261,0,39.044l121.689,121.686  C412.426,241.017,429.907,241.017,440.69,230.236z"/>
<path style="fill:#D84439;" d="M420.746,212.685L299.056,90.999c-7.757-7.758-9.931-18.985-6.525-28.688  c-20.581,5.329-27.668,31.141-12.574,46.238l121.689,121.686c14.417,14.42,38.88,8.695,45.569-10.356  C438.056,222.253,427.918,219.86,420.746,212.685z"/>
<g>
</g>
<g>
</g>
<g>
</g>
<g>
</g>
<g>
</g>
<g>
</g>
<g>
</g>
<g>
</g>
<g>
</g>
<g>
</g>
<g>
</g>
<g>
</g>
<g>
</g>
<g>
</g>
<g>
</g>
</svg>
